HIERARCHY
ROOT joint_Root
{
	OFFSET 0.0 0.0 0.0
	CHANNELS 6 Xposition Yposition Zposition Zrotation Xrotation Yrotation 
	JOINT Hips
	{
		OFFSET 4.5925 91.4895 -427.239
		CHANNELS 6 Xposition Yposition Zposition Zrotation Xrotation Yrotation 
		JOINT Spine
		{
			OFFSET 15.7357 0.0 0.0
			CHANNELS 6 Xposition Yposition Zposition Zrotation Xrotation Yrotation 
			JOINT Chest
			{
				OFFSET 8.98455 -0.406207 0.0
				CHANNELS 6 Xposition Yposition Zposition Zrotation Xrotation Yrotation 
				JOINT Neck
				{
					OFFSET 16.3773 0.0 0.0
					CHANNELS 6 Xposition Yposition Zposition Zrotation Xrotation Yrotation 
					JOINT Head
					{
						OFFSET 6.45672 0.0 0.0
						CHANNELS 6 Xposition Yposition Zposition Zrotation Xrotation Yrotation 
						End Site
						{
							OFFSET 0.0 0.0 0.0
						}
					}
				}
				JOINT Shoulder_L
				{
					OFFSET 12.9942 -0.242716 4.98039
					CHANNELS 6 Xposition Yposition Zposition Zrotation Xrotation Yrotation 
					JOINT UpperArm_L
					{
						OFFSET 5.34809 0.0 0.0
						CHANNELS 6 Xposition Yposition Zposition Zrotation Xrotation Yrotation 
						JOINT LowerArm_L
						{
							OFFSET 24.3286 1.87007e-05 0.0
							CHANNELS 6 Xposition Yposition Zposition Zrotation Xrotation Yrotation 
							JOINT Hand_L
							{
								OFFSET 22.2916 0.0 0.0
								CHANNELS 6 Xposition Yposition Zposition Zrotation Xrotation Yrotation 
								End Site
								{
									OFFSET 0.0 0.0 0.0
								}
							}
						}
					}
				}
				JOINT Shoulder_R
				{
					OFFSET 12.9945 -0.242716 -4.98039
					CHANNELS 6 Xposition Yposition Zposition Zrotation Xrotation Yrotation 
					JOINT UpperArm_R
					{
						OFFSET -5.34813 0.0 0.0
						CHANNELS 6 Xposition Yposition Zposition Zrotation Xrotation Yrotation 
						JOINT LowerArm_R
						{
							OFFSET -24.3289 0.000322201 0.0
							CHANNELS 6 Xposition Yposition Zposition Zrotation Xrotation Yrotation 
							JOINT Hand_R
							{
								OFFSET -22.2915 -0.000108084 0.0
								CHANNELS 6 Xposition Yposition Zposition Zrotation Xrotation Yrotation 
								End Site
								{
									OFFSET 0.0 0.0 0.0
								}
							}
						}
					}
				}
			}
		}
		JOINT UpperLeg_L
		{
			OFFSET -2.19248 -6.46944 0.0
			CHANNELS 6 Xposition Yposition Zposition Zrotation Xrotation Yrotation 
			JOINT LowerLeg_L
			{
				OFFSET 39.0811 0.0 -1.23785e-05
				CHANNELS 6 Xposition Yposition Zposition Zrotation Xrotation Yrotation 
				JOINT Foot_L
				{
					OFFSET 40.9854 0.0 -1.26872e-05
					CHANNELS 6 Xposition Yposition Zposition Zrotation Xrotation Yrotation 
					JOINT Toes_L
					{
						OFFSET 11.7543 0.0 0.0
						CHANNELS 6 Xposition Yposition Zposition Zrotation Xrotation Yrotation 
						End Site
						{
							OFFSET 0.0 0.0 0.0
						}
					}
				}
			}
		}
		JOINT UpperLeg_R
		{
			OFFSET -2.19251 6.46944 0.0
			CHANNELS 6 Xposition Yposition Zposition Zrotation Xrotation Yrotation 
			JOINT LowerLeg_R
			{
				OFFSET -39.0811 -0.00228153 -0.0401928
				CHANNELS 6 Xposition Yposition Zposition Zrotation Xrotation Yrotation 
				JOINT Foot_R
				{
					OFFSET -40.9854 0.0 0.0
					CHANNELS 6 Xposition Yposition Zposition Zrotation Xrotation Yrotation 
					JOINT Toes_R
					{
						OFFSET -11.7543 0.0 0.0
						CHANNELS 6 Xposition Yposition Zposition Zrotation Xrotation Yrotation 
						End Site
						{
							OFFSET 0.0 0.0 0.0
						}
					}
				}
			}
		}
	}
}
MOTION
Frames:	7
Frame Time:	0.0333333
0.000000 0.000000 0.000000 0.000000 0.000000 -0.000000 108.690000 88.298700 170.080000 101.874000 -47.735400 14.204400 15.735700 0.000005 -0.000001 83.053600 85.314300 -83.109100 8.984550 -0.406207 -0.000000 1.536360 -1.129780 -0.095901 16.377300 -0.000001 -0.000001 -2.133270 -14.692800 3.645950 6.456720 -0.000001 -0.000000 -2.679800 -20.293400 10.501200 12.994200 -0.242716 4.980390 -90.502300 1.650320 -73.069900 5.348090 -0.000007 -0.000001 -68.425100 36.733800 -6.210890 24.328600 0.000019 0.000005 13.098000 21.450400 -32.464400 22.291600 -0.000001 0.000005 7.872400 5.334330 -0.912701 12.994500 -0.242716 -4.980390 88.115900 10.125300 -79.402100 -5.348130 -0.000001 -0.000004 -66.117200 24.940700 -6.323150 -24.328900 0.000322 -0.000009 0.958859 3.444410 -15.579600 -22.291500 -0.000108 -0.000004 14.340400 5.357630 -1.609340 -2.192480 -6.469440 -0.000000 -175.808000 1.702090 -9.737470 39.081100 -0.000007 -0.000012 0.004906 -0.004238 49.153500 40.985400 -0.000006 -0.000013 2.159150 -11.657800 -63.846200 11.754300 -0.000000 0.000003 -0.007779 -0.086231 -20.088000 -2.192510 6.469440 -0.000001 -176.403000 9.546650 178.265000 -39.081100 -0.002282 -0.040193 0.083926 -0.098276 39.372300 -40.985400 0.000008 0.000006 25.706400 6.185060 -72.441400 -11.754300 -0.000006 -0.000006 -0.021146 -0.173557 -23.666200
0.000000 0.000000 0.000000 0.000000 0.000000 -0.000000 106.890000 89.142200 171.306000 103.175000 -53.451800 14.162800 15.735700 0.000005 -0.000001 92.616700 85.648900 -92.635100 8.984550 -0.406207 -0.000000 0.927233 0.398231 -0.039944 16.377300 -0.000001 -0.000001 -2.672840 -13.816700 3.504090 6.456720 -0.000001 -0.000000 -3.044760 -19.794300 9.842780 12.994200 -0.242716 4.980390 -90.513800 1.625780 -72.458000 5.348090 -0.000007 -0.000001 -74.327600 35.587100 0.208709 24.328600 0.000019 0.000005 10.873800 21.535200 -27.623300 22.291600 -0.000001 0.000005 6.493670 5.330460 -0.796875 12.994500 -0.242716 -4.980390 88.444100 9.307890 -80.467300 -5.348130 -0.000001 -0.000004 -67.490200 29.432000 -8.243710 -24.328900 0.000322 -0.000009 1.154490 3.482420 -18.373300 -22.291500 -0.000108 -0.000004 13.512600 5.365850 -1.858990 -2.192480 -6.469440 -0.000000 -175.359000 4.217850 -11.251400 39.081100 -0.000007 -0.000012 0.016999 -0.019113 41.646300 40.985400 -0.000006 -0.000013 1.952120 -8.633000 -65.184100 11.754300 -0.000000 0.000003 -0.008105 -0.088898 -20.196900 -2.192510 6.469440 -0.000001 -176.873000 7.097110 179.432000 -39.081100 -0.002282 -0.040193 0.068757 -0.086277 37.192900 -40.985400 0.000008 0.000006 26.392500 10.062600 -70.821400 -11.754300 -0.000006 -0.000006 -0.033625 -0.233621 -26.153300
0.000000 0.000000 0.000000 0.000000 0.000000 -0.000000 105.051000 89.666700 172.591000 104.585000 -58.268700 14.459000 15.735700 0.000005 -0.000001 99.868100 85.759200 -99.917900 8.984550 -0.406207 -0.000000 0.591115 1.456230 -0.107182 16.377300 -0.000001 -0.000001 -3.316060 -13.134000 3.348930 6.456720 -0.000001 -0.000000 -3.531740 -19.295800 9.341990 12.994200 -0.242716 4.980390 -90.485600 1.504340 -72.106600 5.348090 -0.000007 -0.000001 -79.285900 33.264200 5.173050 24.328600 0.000019 0.000005 9.052340 22.795700 -22.355200 22.291600 -0.000001 0.000005 5.050640 5.311030 -0.237136 12.994500 -0.242716 -4.980390 88.654100 8.700460 -81.172000 -5.348130 -0.000001 -0.000004 -68.196200 33.514900 -10.128500 -24.328900 0.000322 -0.000009 1.189710 2.930870 -22.127200 -22.291500 -0.000108 -0.000004 13.644300 5.382710 -2.383530 -2.192480 -6.469440 -0.000000 -174.908000 6.282390 -13.495400 39.081100 -0.000007 -0.000012 0.021282 -0.028538 36.711300 40.985400 -0.000006 -0.000013 2.283470 -5.564930 -66.574900 11.754300 -0.000000 0.000003 -0.008080 -0.088695 -20.188600 -2.192510 6.469440 -0.000001 -177.753000 5.432310 -179.276000 -39.081100 -0.002282 -0.040193 0.057204 -0.075985 35.357200 -40.985400 0.000008 0.000006 26.979300 14.067200 -70.343600 -11.754300 -0.000006 -0.000006 -0.041758 -0.267040 -27.547700
0.000000 0.000000 0.000000 0.000000 0.000000 -0.000000 103.140000 89.864900 173.966000 106.062000 -62.204300 15.127000 15.735700 0.000005 -0.000001 104.386000 85.682400 -104.510000 8.984550 -0.406207 -0.000000 0.601516 2.152510 -0.259849 16.377300 -0.000001 -0.000001 -3.976900 -12.633400 3.025990 6.456720 -0.000001 -0.000000 -4.203440 -18.919200 9.100090 12.994200 -0.242716 4.980390 -90.435900 1.340810 -71.987500 5.348090 -0.000007 -0.000001 -82.924200 31.302100 8.219210 24.328600 0.000019 0.000005 7.474700 25.688200 -16.845300 22.291600 -0.000001 0.000005 3.277170 5.287850 0.413412 12.994500 -0.242716 -4.980390 88.777100 8.375690 -81.662800 -5.348130 -0.000001 -0.000004 -68.231700 36.928900 -11.741900 -24.328900 0.000322 -0.000009 1.007590 1.980540 -27.009200 -22.291500 -0.000108 -0.000004 14.455800 5.400300 -2.945800 -2.192480 -6.469440 -0.000000 -175.082000 5.496580 -16.317900 39.081100 -0.000007 -0.000012 0.011792 -0.017478 34.004000 40.985400 -0.000006 -0.000013 1.283190 -3.182890 -66.832700 11.754300 -0.000000 0.000003 -0.007805 -0.086441 -20.096500 -2.192510 6.469440 -0.000001 -178.730000 4.009930 -177.835000 -39.081100 -0.002282 -0.040193 0.048018 -0.066611 33.878800 -40.985400 0.000008 0.000006 27.357600 17.208300 -70.630100 -11.754300 -0.000006 -0.000006 -0.049297 -0.295245 -28.731300
0.000000 0.000000 0.000000 0.000000 0.000000 -0.000000 101.106000 89.690800 175.487000 107.463000 -65.112700 15.944300 15.735700 0.000005 -0.000001 106.953000 85.559600 -107.182000 8.984550 -0.406207 -0.000000 0.735251 2.602660 -0.475431 16.377300 -0.000001 -0.000001 -4.423630 -12.371700 2.639110 6.456720 -0.000001 -0.000000 -4.902830 -18.729100 8.761710 12.994200 -0.242716 4.980390 -90.340300 1.059760 -72.196000 5.348090 -0.000007 -0.000001 -85.230900 29.661800 9.738130 24.328600 0.000019 0.000005 6.163990 30.007600 -12.189600 22.291600 -0.000001 0.000005 -0.386969 5.264260 1.063540 12.994500 -0.242716 -4.980390 88.834100 8.192120 -81.871900 -5.348130 -0.000001 -0.000004 -67.935800 39.540300 -12.775400 -24.328900 0.000322 -0.000009 0.772185 1.215130 -32.484100 -22.291500 -0.000108 -0.000004 15.124600 5.422580 -3.685410 -2.192480 -6.469440 -0.000000 -176.253000 2.302110 -19.337200 39.081100 -0.000007 -0.000012 -0.015198 0.023523 32.866700 40.985400 -0.000006 -0.000013 -1.398470 1.466300 -66.577600 11.754300 -0.000000 0.000003 -0.007220 -0.081549 -19.896800 -2.192510 6.469440 -0.000001 -179.613000 2.808720 -176.353000 -39.081100 -0.002282 -0.040193 0.042745 -0.060645 33.044200 -40.985400 0.000008 0.000006 27.823600 19.046900 -71.303400 -11.754300 -0.000006 -0.000006 -0.055817 -0.317926 -29.688000
0.000000 0.000000 0.000000 0.000000 0.000000 -0.000000 98.597700 89.144600 177.255000 109.046000 -67.262300 17.529000 15.735700 0.000005 -0.000001 108.163000 85.361300 -108.507000 8.984550 -0.406207 -0.000000 1.059720 2.910900 -0.714949 16.377300 -0.000001 -0.000001 -4.651980 -12.160600 2.141640 6.456720 -0.000001 -0.000000 -5.375100 -18.525600 8.088720 12.994200 -0.242716 4.980390 -90.281700 0.887491 -72.388900 5.348090 -0.000007 -0.000001 -86.263500 28.584500 10.584000 24.328600 0.000019 0.000005 5.110860 34.391100 -8.999630 22.291600 -0.000001 0.000005 -4.355740 5.236410 1.801410 12.994500 -0.242716 -4.980390 88.837600 7.995750 -81.700400 -5.348130 -0.000001 -0.000004 -67.378400 41.922900 -13.309100 -24.328900 0.000322 -0.000009 0.500540 0.646819 -37.826300 -22.291500 -0.000108 -0.000004 15.578900 5.443600 -4.412040 -2.192480 -6.469440 -0.000000 -178.341000 -1.563130 -21.591200 39.081100 -0.000007 -0.000012 -0.067967 0.105066 32.899300 40.985400 -0.000006 -0.000013 -5.636480 10.471300 -66.105700 11.754300 -0.000000 0.000003 -0.007228 -0.081618 -19.899600 -2.192510 6.469440 -0.000001 179.253000 2.242860 -174.187000 -39.081100 -0.002282 -0.040193 0.046173 -0.066427 32.841700 -40.985400 0.000008 0.000006 28.581300 20.377000 -72.390800 -11.754300 -0.000006 -0.000006 -0.068562 -0.358648 -31.417900
0.000000 0.000000 0.000000 0.000000 0.000000 -0.000000 95.737300 88.328200 179.109000 111.001000 -68.407900 19.356600 15.735700 0.000005 -0.000001 107.535000 85.357200 -108.083000 8.984550 -0.406207 -0.000000 1.103420 2.828330 -1.121390 16.377300 -0.000001 -0.000001 -4.584840 -12.085100 1.679990 6.456720 -0.000001 -0.000000 -5.709600 -18.239000 7.440620 12.994200 -0.242716 4.980390 -90.339400 1.065380 -72.327500 5.348090 -0.000007 -0.000001 -85.593400 27.296700 10.777200 24.328600 0.000019 0.000005 4.223040 35.733700 -7.205850 22.291600 -0.000001 0.000005 -6.773760 5.193480 2.883360 12.994500 -0.242716 -4.980390 88.791900 7.966010 -81.347700 -5.348130 -0.000001 -0.000004 -66.773400 43.604900 -13.115200 -24.328900 0.000322 -0.000009 0.529151 0.576083 -42.606100 -22.291500 -0.000108 -0.000004 15.375600 5.459150 -4.970710 -2.192480 -6.469440 -0.000000 177.807000 -4.516110 -25.383700 39.081100 -0.000007 -0.000012 0.113456 -0.150705 36.973200 40.985400 -0.000006 -0.000013 -1.009490 17.819800 -65.541800 11.754300 -0.000000 0.000003 -0.005658 -0.067701 -19.331900 -2.192510 6.469440 -0.000001 177.762000 2.361210 -172.261000 -39.081100 -0.002282 -0.040193 0.048884 -0.069160 33.392400 -40.985400 0.000008 0.000006 29.181300 21.500700 -73.385700 -11.754300 -0.000006 -0.000006 -0.083817 -0.402487 -33.299800
